# xmcd CD database file
#
# Track frame offsets:
#	225
#	16499
#	33265
#	49540
#	66304
#
# Disc length: 1093 seconds
#
# Revision: 0
# Processed by: cddbd v1.5PL3 Copyright (c) Steve Scherf et al.
# Submitted via: CDex 1.51
#
DISCID=3a044205
DTITLE=鈴木まりえ - 初◇恋◇宣◇言
DYEAR=2000
DGENRE=Pop
TTITLE0=初◇恋◇宣◇言
TTITLE1=恋のHORIZON
TTITLE2=初◇恋◇宣◇言(KARAOKE)
TTITLE3=恋のHORIZON(KARAOKE)
TTITLE4=まりえの夏休み(BONUS TRACK)
EXTD=YEAR: 2000
EXTT0=
EXTT1=
EXTT2=
EXTT3=
EXTT4=
PLAYORDER=
